<svg width="36" height="36" viewBox="0 0 36 36" fill="none" xmlns="http://www.w3.org/2000/svg">
<g clip-path="url(#clip0_806_7915)">
<g filter="url(#filter0_d_806_7915)">
<path d="M20.0807 17.9981L30.6275 5.42624C30.8043 5.21731 30.6557 4.8999 30.3824 4.8999H27.1762C26.9874 4.8999 26.8066 4.98428 26.682 5.12892L17.9833 15.499L9.28468 5.12892C9.16414 4.98428 8.98334 4.8999 8.79048 4.8999H5.58423C5.31102 4.8999 5.16236 5.21731 5.33914 5.42624L15.886 17.9981L5.33914 30.57C5.29954 30.6166 5.27414 30.6735 5.26594 30.7341C5.25775 30.7947 5.26711 30.8563 5.29291 30.9118C5.31872 30.9672 5.35988 31.014 5.41152 31.0467C5.46316 31.0795 5.5231 31.0967 5.58423 31.0963H8.79048C8.97932 31.0963 9.16013 31.012 9.28468 30.8673L17.9833 20.4972L26.682 30.8673C26.8025 31.012 26.9833 31.0963 27.1762 31.0963H30.3824C30.6557 31.0963 30.8043 30.7789 30.6275 30.57L20.0807 17.9981Z" fill="black" fill-opacity="0.85" shape-rendering="crispEdges"/>
<path d="M19.6976 17.6768L19.428 17.9981L19.6976 18.3195L29.997 30.5963H27.1762C27.1292 30.5963 27.0901 30.576 27.0661 30.5472L27.0651 30.546L18.3664 20.1759L17.9833 19.7192L17.6003 20.1759L8.90437 30.5427C8.87266 30.5786 8.82972 30.5963 8.79048 30.5963H5.96969L16.2691 18.3195L16.5387 17.9981L16.2691 17.6768L5.96969 5.3999H8.79048C8.83743 5.3999 8.87661 5.42026 8.90057 5.44901L8.90057 5.44901L8.9016 5.45025L17.6003 15.8203L17.9833 16.277L18.3664 15.8203L27.0623 5.45355C27.094 5.41767 27.137 5.3999 27.1762 5.3999H29.997L19.6976 17.6768ZM5.58149 30.5963C5.5824 30.5963 5.58332 30.5963 5.58423 30.5963L5.58149 30.5963Z" stroke="black" shape-rendering="crispEdges"/>
</g>
</g>
<defs>
<filter id="filter0_d_806_7915" x="1.26248" y="4.8999" width="33.4417" height="34.1964" filterUnits="userSpaceOnUse" color-interpolation-filters="sRGB">
<feFlood flood-opacity="0" result="BackgroundImageFix"/>
<feColorMatrix in="SourceAlpha" type="matrix" values="0 0 0 0 0 0 0 0 0 0 0 0 0 0 0 0 0 0 127 0" result="hardAlpha"/>
<feOffset dy="4"/>
<feGaussianBlur stdDeviation="2"/>
<feComposite in2="hardAlpha" operator="out"/>
<feColorMatrix type="matrix" values="0 0 0 0 0 0 0 0 0 0 0 0 0 0 0 0 0 0 0.25 0"/>
<feBlend mode="normal" in2="BackgroundImageFix" result="effect1_dropShadow_806_7915"/>
<feBlend mode="normal" in="SourceGraphic" in2="effect1_dropShadow_806_7915" result="shape"/>
</filter>
<clipPath id="clip0_806_7915">
<rect width="36" height="36" fill="white"/>
</clipPath>
</defs>
</svg>
